<svg width="166" height="166" viewBox="0 0 166 166" fill="none" xmlns="http://www.w3.org/2000/svg">
<g clip-path="url(#clip0_2603_20195)">
<rect y="48.5801" width="140" height="115" rx="8" transform="rotate(-10.1118 0 48.5801)" fill="#FBFBFB"/>
<rect x="48.375" y="52.1426" width="10" height="2" rx="1" transform="rotate(-10.1118 48.375 52.1426)" fill="url(#paint0_linear_2603_20195)"/>
<rect x="66.0977" y="48.9824" width="10" height="2" rx="1" transform="rotate(-10.1118 66.0977 48.9824)" fill="url(#paint1_linear_2603_20195)"/>
<rect x="83.8164" y="45.8223" width="10" height="2" rx="1" transform="rotate(-10.1118 83.8164 45.8223)" fill="#C4C4C4"/>
<rect x="30.5117" y="71.5801" width="88" height="10" rx="1" transform="rotate(-10.1118 30.5117 71.5801)" fill="#EBEBEB"/>
<rect x="33.3203" y="87.332" width="88" height="10" rx="1" transform="rotate(-10.1118 33.3203 87.332)" fill="#EBEBEB"/>
<rect x="36.1289" y="103.084" width="88" height="10" rx="1" transform="rotate(-10.1118 36.1289 103.084)" fill="#EBEBEB"/>
<rect x="59.0469" y="123.375" width="48" height="16" rx="8" transform="rotate(-10.1118 59.0469 123.375)" fill="url(#paint2_linear_2603_20195)"/>
<rect x="71.9141" y="127.174" width="25" height="4" rx="2" transform="rotate(-10.1118 71.9141 127.174)" fill="white"/>
<g filter="url(#filter0_d_2603_20195)">
<circle cx="131" cy="35" r="27" fill="white"/>
<circle cx="131" cy="35" r="23" fill="#F4F3F3"/>
<path d="M154 35C154 31.9796 153.405 28.9888 152.249 26.1983C151.093 23.4078 149.399 20.8723 147.263 18.7365C145.128 16.6008 142.592 14.9066 139.802 13.7508C137.011 12.5949 134.02 12 131 12L131 35H154Z" fill="#68D450"/>
</g>
</g>
<defs>
<filter id="filter0_d_2603_20195" x="92" y="0" width="78" height="78" filterUnits="userSpaceOnUse" color-interpolation-filters="sRGB">
<feFlood flood-opacity="0" result="BackgroundImageFix"/>
<feColorMatrix in="SourceAlpha" type="matrix" values="0 0 0 0 0 0 0 0 0 0 0 0 0 0 0 0 0 0 127 0" result="hardAlpha"/>
<feOffset dy="4"/>
<feGaussianBlur stdDeviation="6"/>
<feColorMatrix type="matrix" values="0 0 0 0 0 0 0 0 0 0 0 0 0 0 0 0 0 0 0.15 0"/>
<feBlend mode="normal" in2="BackgroundImageFix" result="effect1_dropShadow_2603_20195"/>
<feBlend mode="normal" in="SourceGraphic" in2="effect1_dropShadow_2603_20195" result="shape"/>
</filter>
<linearGradient id="paint0_linear_2603_20195" x1="53.375" y1="52.1426" x2="53.375" y2="54.1426" gradientUnits="userSpaceOnUse">
<stop stop-color="#63C74D"/>
<stop offset="1" stop-color="#6CE153"/>
</linearGradient>
<linearGradient id="paint1_linear_2603_20195" x1="71.0977" y1="48.9824" x2="71.0977" y2="50.9824" gradientUnits="userSpaceOnUse">
<stop stop-color="#63C74D"/>
<stop offset="1" stop-color="#6CE153"/>
</linearGradient>
<linearGradient id="paint2_linear_2603_20195" x1="83.0469" y1="123.375" x2="83.0469" y2="139.375" gradientUnits="userSpaceOnUse">
<stop stop-color="#63C74D"/>
<stop offset="1" stop-color="#6CE153"/>
</linearGradient>
<clipPath id="clip0_2603_20195">
<rect width="166" height="166" fill="white"/>
</clipPath>
</defs>
</svg>
