<svg width="200" height="59" viewBox="0 0 200 59" fill="none" xmlns="http://www.w3.org/2000/svg">
<rect width="200" height="59" rx="16" fill="white"/>
<path d="M41.6831 27.067C41.6401 22.294 45.5927 19.9719 45.7735 19.8637C43.535 16.6012 40.0653 16.1555 38.8461 16.1199C35.932 15.8134 33.1053 17.863 31.6209 17.863C30.1068 17.863 27.8209 16.1496 25.3572 16.1999C22.1868 16.2488 19.2209 18.0837 17.5942 20.933C14.2372 26.7427 16.7409 35.2803 19.9572 39.9763C21.5661 42.2762 23.4461 44.8442 25.9068 44.7538C28.3142 44.6546 29.2135 43.2196 32.1187 43.2196C34.9972 43.2196 35.8416 44.7538 38.3513 44.6961C40.935 44.6546 42.5616 42.3858 44.1142 40.0652C45.9735 37.4291 46.7201 34.833 46.7498 34.6998C46.689 34.679 41.732 32.7879 41.6831 27.067Z" fill="black"/>
<path d="M36.9429 13.0343C38.2377 11.4156 39.1236 9.21349 38.8777 6.97876C37.0036 7.06169 34.6599 8.27458 33.3103 9.8577C32.1162 11.2527 31.0495 13.5393 31.3251 15.6896C33.4303 15.8466 35.5918 14.6278 36.9429 13.0343Z" fill="black"/>
<path fill-rule="evenodd" clip-rule="evenodd" d="M73.155 44.426H76.5194L70.1417 24.7177H66.2217L59.875 44.426H63.1506L64.9061 38.637H71.312L73.155 44.426ZM69.0876 31.0623L70.7543 36.2085H65.4609L67.098 31.0623C67.5276 29.4258 67.8402 28.1878 68.0343 27.3496H68.0935C68.5809 29.2985 68.9113 30.5365 69.0876 31.0623Z" fill="black"/>
<path fill-rule="evenodd" clip-rule="evenodd" d="M90.8827 42.8751C92.1894 41.4727 92.8427 39.5623 92.8427 37.1454C92.8427 34.9817 92.2827 33.2372 91.1598 31.9103C90.0398 30.5848 88.6398 29.9229 86.9627 29.9229C84.8175 29.9229 83.219 30.7699 82.1657 32.4671H82.1064L81.9301 30.2146H79.1523C79.2294 31.814 79.2694 33.3734 79.2694 34.8929V50.2161H82.4279V42.73H82.4872C83.3064 44.0747 84.6516 44.747 86.5242 44.747C88.259 44.747 89.7123 44.1236 90.8827 42.8751ZM88.6889 33.8415C89.3141 34.7389 89.6252 35.8792 89.6252 37.2624C89.6252 38.7641 89.2934 39.9726 88.6297 40.8893C87.9675 41.8045 87.0415 42.2636 85.8519 42.2636C84.8386 42.2636 84.0149 41.9081 83.3808 41.1958C82.7467 40.4835 82.4297 39.6112 82.4297 38.5775V36.208C82.4297 35.9563 82.4786 35.6364 82.5764 35.2454C82.7704 34.4072 83.1852 33.7304 83.8193 33.2121C84.4519 32.6982 85.1601 32.4376 85.9393 32.4376C87.0889 32.4376 88.006 32.9055 88.6889 33.8415Z" fill="black"/>
<path fill-rule="evenodd" clip-rule="evenodd" d="M107.235 42.8751C108.543 41.4727 109.197 39.5623 109.197 37.1454C109.197 34.9817 108.635 33.2372 107.517 31.9103C106.394 30.5848 104.994 29.9229 103.318 29.9229C101.172 29.9229 99.573 30.7699 98.5211 32.4671H98.4619L98.2856 30.2146H95.5078C95.5848 31.814 95.6248 33.3734 95.6248 34.8929V50.2161H98.7834V42.73H98.8426C99.6604 44.0747 101.006 44.747 102.878 44.747C104.613 44.747 106.066 44.1236 107.235 42.8751ZM105.043 33.8415C105.668 34.7389 105.981 35.8792 105.981 37.2624C105.981 38.7641 105.649 39.9726 104.985 40.8893C104.323 41.8045 103.397 42.2636 102.207 42.2636C101.191 42.2636 100.367 41.9067 99.7333 41.1958C99.1022 40.4835 98.7852 39.6112 98.7852 38.5775V36.208C98.7852 35.9563 98.8355 35.6364 98.9318 35.2454C99.1259 34.4072 99.5392 33.7304 100.173 33.2121C100.807 32.6982 101.514 32.4376 102.295 32.4376C103.446 32.4376 104.36 32.9055 105.043 33.8415Z" fill="black"/>
<path d="M127.477 38.899C127.477 40.5754 126.895 41.9394 125.726 42.9923C124.442 44.143 122.654 44.7176 120.356 44.7176C118.234 44.7176 116.534 44.3089 115.246 43.4899L115.978 40.8583C117.365 41.6965 118.886 42.1171 120.544 42.1171C121.734 42.1171 122.659 41.8475 123.325 41.3114C123.987 40.7753 124.317 40.0556 124.317 39.1582C124.317 38.3585 124.045 37.6846 123.498 37.1382C122.954 36.5917 122.046 36.0837 120.778 35.6143C117.326 34.3274 115.602 32.4421 115.602 29.963C115.602 28.3429 116.206 27.0145 117.416 25.9808C118.622 24.9456 120.231 24.4288 122.243 24.4288C124.037 24.4288 125.528 24.7412 126.717 25.3647L125.928 27.9386C124.816 27.3344 123.56 27.0323 122.154 27.0323C121.043 27.0323 120.175 27.3062 119.553 27.8512C119.027 28.3384 118.763 28.9323 118.763 29.6357C118.763 30.4147 119.064 31.0589 119.668 31.5654C120.194 32.0334 121.15 32.5399 122.536 33.0863C124.233 33.769 125.479 34.5673 126.28 35.4825C127.079 36.3947 127.477 37.5365 127.477 38.899Z" fill="black"/>
<path d="M137.919 32.5844H134.438V39.4841C134.438 41.239 135.051 42.1157 136.281 42.1157C136.845 42.1157 137.314 42.0669 137.684 41.9691L137.771 44.3668C137.149 44.5993 136.33 44.7163 135.315 44.7163C134.068 44.7163 133.093 44.3357 132.389 43.5759C131.688 42.8147 131.336 41.5382 131.336 39.7448V32.5815H129.262V30.212H131.336V27.61L134.438 26.674V30.212H137.919V32.5844Z" fill="black"/>
<path fill-rule="evenodd" clip-rule="evenodd" d="M151.759 42.5819C153.006 41.1795 153.631 39.386 153.631 37.2017C153.631 35.0765 153.027 33.3423 151.815 31.9991C150.549 30.6144 148.87 29.9229 146.784 29.9229C144.62 29.9229 142.898 30.6248 141.623 32.0287C140.344 33.4312 139.707 35.235 139.707 37.4371C139.707 39.5415 140.326 41.2876 141.565 42.6708C142.803 44.0539 144.464 44.7455 146.55 44.7455C148.714 44.7455 150.451 44.0258 151.759 42.5819ZM149.505 33.9307C150.072 34.8681 150.352 35.9922 150.352 37.3028C150.352 38.612 150.059 39.7478 149.477 40.703C148.794 41.8552 147.847 42.4328 146.641 42.4328C145.41 42.4328 144.456 41.8671 143.773 40.7327C143.206 39.7967 142.926 38.6727 142.926 37.362C142.926 36.0114 143.206 34.8696 143.773 33.9307C144.435 32.7978 145.4 32.2306 146.669 32.2306C147.896 32.2306 148.843 32.7963 149.505 33.9307Z" fill="black"/>
<path d="M163.895 32.9914C163.582 32.9336 163.249 32.904 162.899 32.904C161.788 32.904 160.929 33.3231 160.325 34.1628C159.799 34.9032 159.535 35.8392 159.535 36.9691V44.4257H156.378L156.408 34.69C156.408 33.0521 156.368 31.5608 156.289 30.2161H159.04L159.156 32.9351H159.243C159.576 32.0006 160.102 31.2483 160.822 30.6841C161.526 30.1761 162.286 29.9229 163.105 29.9229C163.397 29.9229 163.661 29.9436 163.895 29.9806V32.9914Z" fill="black"/>
<path fill-rule="evenodd" clip-rule="evenodd" d="M177.905 38.0792C177.984 37.6897 178.021 37.2128 178.021 36.6471C178.021 34.8744 177.602 33.3816 176.767 32.1747C175.714 30.6552 174.163 29.8955 172.114 29.8955C170.028 29.8955 168.37 30.6552 167.144 32.1747C165.972 33.5978 165.387 35.3824 165.387 37.5253C165.387 39.7082 166.016 41.4483 167.273 42.7441C168.532 44.0399 170.262 44.6886 172.467 44.6886C174.299 44.6886 175.887 44.3968 177.233 43.8104L176.738 41.6186C175.587 42.0673 174.307 42.2909 172.904 42.2909C171.636 42.2909 170.603 41.9592 169.804 41.2972C168.924 40.5568 168.467 39.4831 168.43 38.0792H177.905ZM174.396 33.4027C174.824 34.0854 175.03 34.894 175.009 35.8299V35.8284H168.43C168.526 34.8747 168.839 34.0558 169.365 33.373C170.006 32.5141 170.846 32.0861 171.879 32.0861C173.009 32.0861 173.849 32.5245 174.396 33.4027Z" fill="black"/>
<path fill-rule="evenodd" clip-rule="evenodd" d="M68.1519 16.5358C69.1963 15.6547 69.7193 14.3425 69.7193 12.5995C69.7193 11.0475 69.2348 9.85531 68.2689 9.02154C67.4067 8.28404 66.1282 7.91528 64.4319 7.91528C63.4719 7.91528 62.583 7.98341 61.7578 8.11669V17.6406C62.3904 17.7176 63.146 17.7561 64.0289 17.7561C65.8097 17.7561 67.1845 17.3488 68.1519 16.5358ZM67.1788 10.0423C67.7773 10.6466 68.0765 11.5129 68.0765 12.6429C68.0765 13.9076 67.7506 14.8702 67.1047 15.5307C66.4588 16.1912 65.5417 16.5214 64.3536 16.5214C63.8454 16.5214 63.4958 16.5081 63.3047 16.4785V9.23819C63.6499 9.17007 64.0662 9.13749 64.5551 9.13749C65.7062 9.13749 66.5802 9.4396 67.1788 10.0423Z" fill="black"/>
<path fill-rule="evenodd" clip-rule="evenodd" d="M77.4786 16.7656C78.0919 16.0755 78.3986 15.1958 78.3986 14.1222C78.3986 13.0796 78.1008 12.2266 77.5082 11.5661C76.8845 10.8863 76.0608 10.5472 75.0356 10.5472C73.9719 10.5472 73.1275 10.8922 72.4993 11.5809C71.8712 12.2695 71.5586 13.1566 71.5586 14.2377C71.5586 15.2714 71.8623 16.1288 72.4697 16.8086C73.0786 17.4898 73.8949 17.8289 74.9201 17.8289C75.9838 17.8289 76.8356 17.475 77.4786 16.7656ZM76.3722 12.5184C76.6493 12.9789 76.7885 13.5313 76.7885 14.1755C76.7885 14.8197 76.6448 15.3766 76.3574 15.846C76.0226 16.4132 75.5574 16.6961 74.9648 16.6961C74.3604 16.6961 73.8922 16.4177 73.5559 15.8608C73.2789 15.4003 73.1396 14.8479 73.1396 14.2037C73.1396 13.5402 73.2774 12.9789 73.5559 12.5184C73.8819 11.9615 74.3559 11.6831 74.9796 11.6831C75.5826 11.6831 76.0463 11.9615 76.3722 12.5184Z" fill="black"/>
<path d="M90.0404 10.6877L87.8552 17.6689H86.433L85.5278 14.6374C85.2982 13.8806 85.1115 13.1283 84.9663 12.3819H84.9382C84.8034 13.1491 84.6167 13.8999 84.3767 14.6374L83.4152 17.6689H81.9767L79.9219 10.6877H81.5174L82.3071 14.0065C82.4982 14.7914 82.6552 15.5393 82.7811 16.2472H82.8093C82.9248 15.6637 83.1159 14.9203 83.3856 14.0213L84.3767 10.6892H85.6419L86.5915 13.9502C86.8211 14.7455 87.0078 15.5112 87.1515 16.2487H87.1945C87.2997 15.5304 87.4582 14.7648 87.6685 13.9502L88.5159 10.6892H90.0404V10.6877Z" fill="black"/>
<path d="M98.0863 17.671H96.5337V13.6725C96.5337 12.4404 96.0656 11.8243 95.1263 11.8243C94.6656 11.8243 94.2937 11.9931 94.0048 12.3322C93.7189 12.6714 93.5737 13.0712 93.5737 13.5288V17.6695H92.0211V12.6847C92.0211 12.0716 92.0019 11.4067 91.9648 10.6869H93.3293L93.4019 11.7784H93.4448C93.6256 11.4392 93.8952 11.1593 94.2493 10.9357C94.67 10.6751 95.1411 10.5433 95.6567 10.5433C96.3085 10.5433 96.8508 10.7536 97.2819 11.1756C97.8182 11.6925 98.0863 12.464 98.0863 13.4889V17.671Z" fill="black"/>
<path d="M102.368 17.6663H100.816V7.48187H102.368V17.6663Z" fill="black"/>
<path fill-rule="evenodd" clip-rule="evenodd" d="M110.592 16.7656C111.205 16.0755 111.512 15.1958 111.512 14.1222C111.512 13.0796 111.214 12.2266 110.622 11.5661C109.996 10.8863 109.174 10.5472 108.147 10.5472C107.085 10.5472 106.241 10.8922 105.613 11.5809C104.984 12.2695 104.672 13.1566 104.672 14.2377C104.672 15.2714 104.976 16.1288 105.583 16.8086C106.19 17.4898 107.007 17.8289 108.033 17.8289C109.096 17.8289 109.949 17.475 110.592 16.7656ZM109.484 12.5184C109.761 12.9789 109.9 13.5313 109.9 14.1755C109.9 14.8197 109.758 15.3766 109.469 15.846C109.134 16.4132 108.671 16.6961 108.078 16.6961C107.474 16.6961 107.006 16.4177 106.669 15.8608C106.392 15.4003 106.253 14.8479 106.253 14.2037C106.253 13.5402 106.391 12.9789 106.669 12.5184C106.994 11.9615 107.468 11.6831 108.093 11.6831C108.694 11.6831 109.16 11.9615 109.484 12.5184Z" fill="black"/>
<path fill-rule="evenodd" clip-rule="evenodd" d="M117.628 17.6705H119.022C118.956 17.2588 118.922 16.7034 118.922 16.0059V13.435C118.922 11.5098 118.006 10.5472 116.181 10.5472C115.236 10.5472 114.434 10.7486 113.785 11.1499L114.101 12.1688C114.625 11.8252 115.233 11.652 115.922 11.652C116.889 11.652 117.372 12.111 117.372 13.0307V13.161C116.079 13.1507 115.074 13.3713 114.36 13.8215C113.645 14.2717 113.289 14.9219 113.289 15.7749C113.289 16.3391 113.471 16.8145 113.836 17.1966C114.237 17.6172 114.771 17.8289 115.43 17.8289C116.313 17.8289 116.993 17.5076 117.47 16.8663H117.513L117.628 17.6705ZM117.413 14.1917V15.2687C117.413 15.3739 117.404 15.4658 117.387 15.5413C117.321 15.8776 117.142 16.1517 116.85 16.368C116.559 16.5828 116.241 16.6909 115.9 16.6909C115.596 16.6909 115.342 16.6006 115.142 16.4184C114.942 16.2361 114.844 15.9635 114.844 15.5991C114.844 14.6317 115.7 14.1621 117.413 14.1917Z" fill="black"/>
<path fill-rule="evenodd" clip-rule="evenodd" d="M126.465 17.6663H127.842C127.805 17.0917 127.788 16.4652 127.788 15.7855V7.48187H126.234V11.4893H126.204C125.831 10.8569 125.174 10.5415 124.237 10.5415C123.383 10.5415 122.666 10.8673 122.081 11.5189C121.477 12.2179 121.176 13.1331 121.176 14.2631C121.176 15.316 121.453 16.1735 122.008 16.834C122.564 17.4945 123.265 17.8247 124.106 17.8247C125.159 17.8247 125.909 17.3982 126.349 16.5452H126.392L126.465 17.6663ZM126.233 13.5595V14.7236C126.233 15.2211 126.087 15.6477 125.787 16.0016C125.478 16.3852 125.07 16.5762 124.561 16.5762C123.993 16.5762 123.54 16.3467 123.204 15.8876C122.885 15.4566 122.727 14.8968 122.727 14.2067C122.727 13.4885 122.894 12.9005 123.224 12.4399C123.558 11.9794 124.011 11.7498 124.59 11.7498C124.992 11.7498 125.34 11.8772 125.629 12.1304C125.915 12.3837 126.103 12.6976 126.19 13.0708C126.218 13.1952 126.233 13.3581 126.233 13.5595Z" fill="black"/>
<path fill-rule="evenodd" clip-rule="evenodd" d="M140.209 16.7656C140.822 16.0755 141.129 15.1958 141.129 14.1222C141.129 13.0796 140.831 12.2266 140.239 11.5661C139.616 10.8863 138.791 10.5472 137.768 10.5472C136.702 10.5472 135.858 10.8922 135.23 11.5809C134.602 12.2695 134.289 13.1566 134.289 14.2377C134.289 15.2714 134.593 16.1288 135.2 16.8086C135.811 17.4898 136.627 17.8289 137.651 17.8289C138.716 17.8289 139.566 17.475 140.209 16.7656ZM139.104 12.5184C139.381 12.9789 139.52 13.5313 139.52 14.1755C139.52 14.8197 139.375 15.3766 139.089 15.846C138.755 16.4132 138.288 16.6961 137.695 16.6961C137.091 16.6961 136.623 16.4177 136.286 15.8608C136.009 15.4003 135.87 14.8479 135.87 14.2037C135.87 13.5402 136.008 12.9789 136.286 12.5184C136.614 11.9615 137.088 11.6831 137.71 11.6831C138.315 11.6831 138.777 11.9615 139.104 12.5184Z" fill="black"/>
<path d="M149.475 17.671H147.924V13.6725C147.924 12.4404 147.456 11.8243 146.515 11.8243C146.055 11.8243 145.683 11.9931 145.395 12.3322C145.108 12.6714 144.964 13.0712 144.964 13.5288V17.6695H143.41V12.6847C143.41 12.0716 143.393 11.4067 143.355 10.6869H144.718L144.791 11.7784H144.834C145.016 11.4392 145.286 11.1593 145.638 10.9357C146.061 10.6751 146.53 10.5433 147.047 10.5433C147.698 10.5433 148.24 10.7536 148.671 11.1756C149.209 11.6925 149.475 12.464 149.475 13.4889V17.671Z" fill="black"/>
<path d="M159.921 11.8551H158.212V15.2465C158.212 16.1084 158.515 16.5393 159.117 16.5393C159.395 16.5393 159.626 16.5156 159.809 16.4668L159.849 17.6441C159.542 17.7596 159.139 17.8174 158.643 17.8174C158.029 17.8174 157.552 17.6308 157.207 17.2576C156.861 16.8844 156.689 16.2565 156.689 15.3753V11.8551H155.668V10.6926H156.689V9.41307L158.21 8.95398V10.6911H159.92V11.8551H159.921Z" fill="black"/>
<path d="M168.139 17.6663H166.585V13.6974C166.585 12.446 166.117 11.8195 165.179 11.8195C164.459 11.8195 163.968 12.1824 163.698 12.908C163.652 13.0606 163.625 13.2472 163.625 13.4663V17.6648H162.074V7.48187H163.625V11.6892H163.655C164.144 10.9236 164.845 10.5415 165.753 10.5415C166.396 10.5415 166.928 10.7518 167.35 11.1738C167.876 11.6996 168.139 12.4815 168.139 13.5152V17.6663Z" fill="black"/>
<path fill-rule="evenodd" clip-rule="evenodd" d="M176.561 14.5463C176.598 14.3553 176.619 14.1213 176.619 13.8429C176.619 12.9721 176.413 12.239 175.997 11.6466C175.481 10.9002 174.718 10.527 173.714 10.527C172.687 10.527 171.874 10.9002 171.272 11.6466C170.696 12.3456 170.41 13.2223 170.41 14.2753C170.41 15.3475 170.717 16.202 171.336 16.8388C171.952 17.4756 172.804 17.794 173.886 17.794C174.788 17.794 175.567 17.6503 176.229 17.363L175.986 16.2849C175.421 16.5056 174.792 16.6152 174.103 16.6152C173.481 16.6152 172.973 16.4523 172.579 16.1265C172.148 15.7621 171.926 15.2364 171.905 14.5463H176.561ZM174.834 12.2522C175.045 12.587 175.147 12.984 175.135 13.4448H171.902C171.953 12.9751 172.105 12.5737 172.363 12.2374C172.679 11.8151 173.092 11.6048 173.599 11.6048C174.154 11.6048 174.565 11.8211 174.834 12.2522Z" fill="black"/>
</svg>
