<svg width="32" height="32" viewBox="0 0 32 32" fill="none" xmlns="http://www.w3.org/2000/svg">
<path fill-rule="evenodd" clip-rule="evenodd" d="M10.4415 9H21.5585C21.9889 9 22.3711 9.27543 22.5072 9.68377L23.6126 13H8.38743L9.49284 9.68377C9.62895 9.27543 10.0111 9 10.4415 9ZM23.4558 9.36754L24.6667 13L25 14C26.1046 14 27 14.8954 27 16V20C27 21.1046 26.1046 22 25 22V24C25 24.5523 24.5523 25 24 25H22C21.4477 25 21 24.5523 21 24V22H11V24C11 24.5523 10.5523 25 10 25H8C7.44772 25 7 24.5523 7 24L7 22C5.89543 22 5 21.1046 5 20V16C5 14.8954 5.89543 14 7 14L7.33333 13L8.54415 9.36754C8.81638 8.55086 9.58066 8 10.4415 8H21.5585C22.4193 8 23.1836 8.55086 23.4558 9.36754ZM9 20C10.1046 20 11 19.1046 11 18C11 16.8954 10.1046 16 9 16C7.89543 16 7 16.8954 7 18C7 19.1046 7.89543 20 9 20ZM25 18C25 19.1046 24.1046 20 23 20C21.8954 20 21 19.1046 21 18C21 16.8954 21.8954 16 23 16C24.1046 16 25 16.8954 25 18Z" fill="#FF5C5C"/>
</svg>
