<?xml version="1.0" encoding="utf-8"?>
<!-- Generator: Adobe Illustrator 23.0.1, SVG Export Plug-In . SVG Version: 6.00 Build 0)  -->
<svg version="1.1" id="Layer_1" xmlns="http://www.w3.org/2000/svg" xmlns:xlink="http://www.w3.org/1999/xlink" x="0px" y="0px"
	 viewBox="0 0 126 30" style="enable-background:new 0 0 126 30;" xml:space="preserve">
<style type="text/css">
	.st0{fill:#FFFFFF;}
</style>
<g>
	<g>
		<g>
			<path class="st0" d="M8.4,5.7C3.76,5.7,0,9.46,0,14.09c0,6.26,8.4,11.43,8.4,11.43s8.4-5.17,8.4-11.43
				C16.8,9.46,13.04,5.7,8.4,5.7z M12.08,14.41c-0.74,0.41-1.52,0.49-2.34,0.25c-0.07-0.02-0.1,0.01-0.14,0.05
				c-1.32,1.32-3.09,3.09-4.43,4.43c-0.35-0.35-1.4-1.4-1.74-1.74c1.31-1.31,3.1-3.1,4.36-4.36c0.05-0.05,0.06-0.09,0.03-0.16
				c-0.65-1.75,0.39-3.61,2.22-3.98c0.48-0.1,0.96-0.06,1.45,0.08c-0.4,0.67-0.79,1.33-1.17,1.98c0.37,0.37,0.73,0.73,1.1,1.1
				c0.66-0.4,1.33-0.79,2.02-1.21c0.04,0.21,0.1,0.4,0.12,0.59C13.72,12.63,13.12,13.83,12.08,14.41z"/>
		</g>
	</g>
	<g>
		<g>
			<g>
				<path class="st0" d="M29.99,10.68v7.41c-0.64,0.84-1.56,1.36-2.5,1.36c-1.56,0-2.13-1.07-2.13-2.55v-6.22H22.5v6.82
					c0,3.2,1.74,4.61,3.92,4.61c1.74,0,2.9-0.82,3.57-1.64v1.36h2.85V10.68H29.99z"/>
				<path class="st0" d="M37.72,13.75c0-0.5,0.52-0.97,1.39-0.97c1.19,0,2.35,0.55,3.02,1.07l1.07-2.03
					c-0.69-0.64-2.08-1.41-4.24-1.41c-2.31,0-4.09,1.22-4.09,3.4c0,4.07,6.02,3.07,6.02,4.88c0,0.69-0.64,1.04-1.46,1.04
					c-1.12,0-2.8-0.67-3.47-1.39l-1.39,1.86c0.52,0.79,2.6,1.91,4.66,1.91c2.73,0,4.51-1.36,4.51-3.57
					C43.75,14.59,37.72,15.61,37.72,13.75z"/>
				<path class="st0" d="M51.43,18.78c-0.4,0.3-0.94,0.64-1.71,0.64c-0.94,0-1.34-0.79-1.34-2.01v-4.07h3.6v-2.68h-3.6v-3.1h-2.85
					v10.02c0,2.85,0.94,4.49,3.47,4.49c1.44,0,2.63-0.55,3.3-1.09L51.43,18.78z"/>
				<path class="st0" d="M58.45,10.4c-1.46,0-2.98,0.5-3.94,1.07l0.72,2.08c0.82-0.37,1.64-0.77,2.93-0.77
					c1.66,0,2.16,1.02,2.08,2.88c-0.55-0.4-1.54-0.72-2.53-0.72c-2.26,0-4.07,1.17-4.07,3.62c0,2.16,1.46,3.42,3.5,3.42
					c1.51,0,2.7-0.6,3.3-1.44v1.29h2.48v-6.79C62.91,12.09,61.75,10.4,58.45,10.4z M60.23,18.56c-0.35,0.5-0.97,1.02-2.16,1.02
					c-0.89,0-1.59-0.47-1.59-1.31c0-0.94,0.84-1.39,1.79-1.39c0.82,0,1.46,0.17,1.96,0.55V18.56z"/>
				<path class="st0" d="M71.21,10.4c-1.19,0-2.26,0.42-2.95,0.97V4.48h-2.85v16.39c1.02,0.64,2.9,1.24,4.74,1.24
					c3.92,0,6.37-2.35,6.37-6.02C76.51,12.78,74.53,10.4,71.21,10.4z M70.29,19.45c-0.79,0-1.41-0.17-2.03-0.57v-4.74
					c0.47-0.55,1.29-1.07,2.28-1.07c1.61,0,2.93,1.07,2.93,3.2C73.46,18.29,72.08,19.45,70.29,19.45z"/>
				<path class="st0" d="M83.73,10.4c-3.69,0-6.08,2.5-6.08,5.85c0,3.35,2.38,5.85,6.08,5.85c3.69,0,6.07-2.5,6.07-5.85
					C89.8,12.91,87.42,10.4,83.73,10.4z M83.73,19.45c-1.74,0-3.03-1.34-3.03-3.2c0-1.93,1.34-3.17,3.03-3.17
					c1.74,0,3.05,1.29,3.05,3.17C86.78,18.19,85.49,19.45,83.73,19.45z"/>
				<path class="st0" d="M96.97,10.48c-1.34,0-2.03,0.57-2.55,1.29v-1.09h-2.85v11.16h2.85v-7.49c0.32-0.64,0.84-1.19,1.83-1.19
					c0.6,0,0.89,0.1,1.44,0.42l1.02-2.68C98.33,10.63,97.89,10.48,96.97,10.48z"/>
				<path class="st0" d="M99.99,18.14c-1.24,0-1.98,0.97-1.98,1.83c0,1.02,0.74,1.98,1.98,1.98c1.07,0,1.81-0.97,1.81-1.98
					C101.8,19.11,101.06,18.14,99.99,18.14z"/>
				<path class="st0" d="M111.19,10.68v7.41c-0.64,0.84-1.56,1.36-2.5,1.36c-1.56,0-2.13-1.07-2.13-2.55v-6.22h-2.85v6.82
					c0,3.2,1.74,4.61,3.92,4.61c1.74,0,2.9-0.82,3.57-1.64v1.36h2.85V10.68H111.19z"/>
				<path class="st0" d="M126,10.68h-9.67v2.68h5.68l-6.05,6.42v2.06h9.92v-2.65h-5.93l6.05-6.45V10.68z"/>
			</g>
		</g>
	</g>
</g>
</svg>
