<svg width="200" height="59" viewBox="0 0 200 59" fill="none" xmlns="http://www.w3.org/2000/svg">
<rect width="200" height="59" rx="16" fill="white"/>
<path d="M70.217 14.0008C70.217 15.1811 69.9207 16.2138 69.18 16.9515C68.2911 17.8367 67.254 18.2793 65.9207 18.2793C64.5874 18.2793 63.5503 17.8367 62.6615 16.9515C61.7726 16.0663 61.3281 15.0335 61.3281 13.7057C61.3281 12.3779 61.7726 11.3451 62.6615 10.4599C63.5503 9.57469 64.5874 9.13208 65.9207 9.13208C66.5133 9.13208 67.1059 9.27962 67.6985 9.57469C68.2911 9.86976 68.7355 10.1648 69.0318 10.6074L68.2911 11.3451C67.6985 10.6074 66.9578 10.3124 65.9207 10.3124C65.0318 10.3124 64.1429 10.6074 63.5503 11.3451C62.8096 11.9353 62.5133 12.8205 62.5133 13.8532C62.5133 14.886 62.8096 15.7712 63.5503 16.3613C64.2911 16.9515 65.0318 17.3941 65.9207 17.3941C66.9578 17.3941 67.6985 17.099 68.4392 16.3613C68.8837 15.9187 69.18 15.3286 69.18 14.5909H65.9207V13.5582H70.217C70.217 13.5582 70.217 13.8532 70.217 14.0008Z" fill="black" stroke="white" stroke-width="0.2" stroke-miterlimit="10"/>
<path d="M77.0328 10.3163H73.0328V13.1195H76.7365V14.1523H73.0328V16.9554H77.0328V18.1357H71.8477V9.28357H77.0328V10.3163Z" fill="black" stroke="white" stroke-width="0.2" stroke-miterlimit="10"/>
<path d="M81.9225 18.1357H80.7373V10.3163H78.2188V9.28357H84.441V10.3163H81.9225V18.1357Z" fill="black" stroke="white" stroke-width="0.2" stroke-miterlimit="10"/>
<path d="M88.7383 18.1357V9.28357H89.9235V18.1357H88.7383Z" fill="black" stroke="white" stroke-width="0.2" stroke-miterlimit="10"/>
<path d="M94.9576 18.1366H93.7724V10.3172H91.2539V9.28442H97.328V10.3172H94.8095V18.1366H94.9576Z" fill="black" stroke="white" stroke-width="0.2" stroke-miterlimit="10"/>
<path d="M109.028 16.9524C108.139 17.8376 107.102 18.2802 105.768 18.2802C104.435 18.2802 103.398 17.8376 102.509 16.9524C101.62 16.0672 101.176 15.0344 101.176 13.7066C101.176 12.3788 101.62 11.346 102.509 10.4608C103.398 9.5756 104.435 9.133 105.768 9.133C107.102 9.133 108.139 9.5756 109.028 10.4608C109.917 11.346 110.361 12.3788 110.361 13.7066C110.361 15.0344 109.917 16.0672 109.028 16.9524ZM103.398 16.2147C103.991 16.8049 104.879 17.2475 105.768 17.2475C106.657 17.2475 107.546 16.9524 108.139 16.2147C108.731 15.6246 109.176 14.7394 109.176 13.7066C109.176 12.6739 108.879 11.7886 108.139 11.1985C107.546 10.6084 106.657 10.1657 105.768 10.1657C104.879 10.1657 103.991 10.4608 103.398 11.1985C102.805 11.7886 102.361 12.6739 102.361 13.7066C102.361 14.7394 102.657 15.6246 103.398 16.2147Z" fill="black" stroke="white" stroke-width="0.2" stroke-miterlimit="10"/>
<path d="M111.996 18.1357V9.28357H113.329L117.626 16.2178V14.4473V9.28357H118.811V18.1357H117.626L113.033 10.9065V12.6769V18.1357H111.996Z" fill="black" stroke="white" stroke-width="0.2" stroke-miterlimit="10"/>
<path d="M100.891 31.1146C97.3351 31.1146 94.5203 33.7702 94.5203 37.4586C94.5203 40.9995 97.3351 43.8027 100.891 43.8027C104.446 43.8027 107.261 41.147 107.261 37.4586C107.261 33.6227 104.446 31.1146 100.891 31.1146ZM100.891 41.147C98.9647 41.147 97.3351 39.5241 97.3351 37.3111C97.3351 35.098 98.9647 33.4751 100.891 33.4751C102.817 33.4751 104.446 34.9505 104.446 37.3111C104.446 39.5241 102.817 41.147 100.891 41.147ZM87.1129 31.1146C83.5573 31.1146 80.7425 33.7702 80.7425 37.4586C80.7425 40.9995 83.5573 43.8027 87.1129 43.8027C90.6684 43.8027 93.4832 41.147 93.4832 37.4586C93.4832 33.6227 90.6684 31.1146 87.1129 31.1146ZM87.1129 41.147C85.1869 41.147 83.5573 39.5241 83.5573 37.3111C83.5573 35.098 85.1869 33.4751 87.1129 33.4751C89.0388 33.4751 90.6684 34.9505 90.6684 37.3111C90.6684 39.5241 89.0388 41.147 87.1129 41.147ZM70.6684 33.0325V35.6882H77.0388C76.8906 37.1635 76.298 38.3438 75.5573 39.0815C74.6684 39.9667 73.1869 40.9995 70.6684 40.9995C66.6684 40.9995 63.7054 37.9012 63.7054 33.9177C63.7054 29.9343 66.8166 26.836 70.6684 26.836C72.7425 26.836 74.3721 27.7212 75.5573 28.754L77.4832 26.836C75.8536 25.3606 73.7795 24.1804 70.8166 24.1804C65.4832 24.1804 60.8906 28.6064 60.8906 33.9177C60.8906 39.229 65.4832 43.6551 70.8166 43.6551C73.7795 43.6551 75.8536 42.7699 77.6314 40.8519C79.4092 39.0815 80.0017 36.5734 80.0017 34.6554C80.0017 34.0653 80.0017 33.4751 79.8536 33.0325H70.6684ZM137.928 35.098C137.335 33.6227 135.854 31.1146 132.594 31.1146C129.335 31.1146 126.668 33.6227 126.668 37.4586C126.668 40.9995 129.335 43.8027 132.891 43.8027C135.705 43.8027 137.483 42.0322 138.076 40.9995L136.002 39.5241C135.261 40.5569 134.372 41.2945 132.891 41.2945C131.409 41.2945 130.52 40.7044 129.78 39.3766L138.224 35.8357L137.928 35.098ZM129.335 37.1635C129.335 34.803 131.261 33.4751 132.594 33.4751C133.631 33.4751 134.668 34.0653 134.965 34.803L129.335 37.1635ZM122.372 43.2125H125.187V24.7705H122.372V43.2125ZM117.928 32.4424C117.187 31.7047 116.002 30.967 114.52 30.967C111.409 30.967 108.446 33.7702 108.446 37.3111C108.446 40.8519 111.261 43.5076 114.52 43.5076C116.002 43.5076 117.187 42.7699 117.78 42.0322H117.928V42.9174C117.928 45.278 116.594 46.6058 114.52 46.6058C112.891 46.6058 111.705 45.4256 111.409 44.3928L109.039 45.4256C109.78 47.0485 111.557 49.114 114.668 49.114C117.928 49.114 120.594 47.196 120.594 42.6224V31.4096H117.928V32.4424ZM114.668 41.147C112.742 41.147 111.113 39.5241 111.113 37.3111C111.113 35.098 112.742 33.4751 114.668 33.4751C116.594 33.4751 118.076 35.098 118.076 37.3111C118.076 39.5241 116.594 41.147 114.668 41.147ZM150.817 24.7705H144.15V43.2125H146.965V36.2783H150.817C153.928 36.2783 156.891 34.0653 156.891 30.5244C156.891 26.9835 153.928 24.7705 150.817 24.7705ZM150.965 33.6227H146.965V27.2786H150.965C153.039 27.2786 154.224 29.049 154.224 30.3769C154.076 31.9998 152.891 33.6227 150.965 33.6227ZM168.002 30.967C165.928 30.967 163.854 31.8522 163.113 33.7702L165.631 34.803C166.224 33.7702 167.113 33.4751 168.15 33.4751C169.631 33.4751 170.965 34.3603 171.113 35.8357V35.9832C170.668 35.6882 169.483 35.2456 168.298 35.2456C165.631 35.2456 162.965 36.7209 162.965 39.3766C162.965 41.8847 165.187 43.5076 167.557 43.5076C169.483 43.5076 170.372 42.6224 171.113 41.7372H171.261V43.2125H173.928V36.1308C173.631 32.885 171.113 30.967 168.002 30.967ZM167.705 41.147C166.817 41.147 165.483 40.7044 165.483 39.5241C165.483 38.0487 167.113 37.6061 168.446 37.6061C169.631 37.6061 170.224 37.9012 170.965 38.1963C170.668 39.9667 169.187 41.147 167.705 41.147ZM183.261 31.4096L180.15 39.3766H180.002L176.743 31.4096H173.78L178.668 42.6224L175.854 48.8189H178.668L186.224 31.4096H183.261ZM158.372 43.2125H161.187V24.7705H158.372V43.2125Z" fill="black"/>
<path d="M15.4009 10.0098C14.9565 10.4524 14.6602 11.1901 14.6602 12.0753V44.6807C14.6602 45.566 14.9565 46.3036 15.4009 46.7463L15.549 46.8938L33.9194 28.5993V28.4518V28.3042L15.4009 10.0098Z" fill="url(#paint0_linear_2759_25284)"/>
<path d="M39.9881 34.8036L33.9141 28.7547V28.4596V28.312L39.9881 22.2631L40.1363 22.4106L47.3955 26.5416C49.4696 27.7219 49.4696 29.6399 47.3955 30.8202L39.9881 34.8036Z" fill="url(#paint1_linear_2759_25284)"/>
<path d="M40.1392 34.6495L33.917 28.4529L15.3984 46.8949C16.1392 47.6326 17.1762 47.6326 18.5095 47.0425L40.1392 34.6495Z" fill="url(#paint2_linear_2759_25284)"/>
<path d="M40.1392 22.257L18.5095 10.0115C17.1762 9.2738 16.1392 9.42133 15.3984 10.159L33.917 28.4535L40.1392 22.257Z" fill="url(#paint3_linear_2759_25284)"/>
<path opacity="0.2" d="M39.9949 34.5007L18.5135 46.5987C17.3283 47.3364 16.2912 47.1888 15.5505 46.5987L15.4023 46.7462L15.5505 46.8938C16.2912 47.4839 17.3283 47.6314 18.5135 46.8938L39.9949 34.5007Z" fill="black"/>
<path opacity="0.12" d="M15.4012 46.6019C14.9567 46.1591 14.8086 45.4212 14.8086 44.5356V44.6832C14.8086 45.5688 15.1049 46.3067 15.5493 46.7495V46.6019H15.4012Z" fill="black"/>
<path opacity="0.12" d="M47.4035 30.3702L39.9961 34.5012L40.1442 34.6487L47.4035 30.5177C48.4405 29.9276 48.885 29.1899 48.885 28.4522C48.885 29.1899 48.2924 29.78 47.4035 30.3702Z" fill="black"/>
<path opacity="0.25" d="M18.5162 10.1597L47.4051 26.5362C48.294 27.1264 48.8866 27.7165 48.8866 28.4542C48.8866 27.7165 48.4421 26.9788 47.4051 26.3887L18.5162 10.0122C16.4421 8.83191 14.8125 9.86466 14.8125 12.2252V12.3728C14.8125 10.0122 16.4421 8.97945 18.5162 10.1597Z" fill="white"/>
<defs>
<linearGradient id="paint0_linear_2759_25284" x1="32.2893" y1="11.7945" x2="7.52947" y2="36.6571" gradientUnits="userSpaceOnUse">
<stop stop-color="#00A0FF"/>
<stop offset="0.00657445" stop-color="#00A1FF"/>
<stop offset="0.2601" stop-color="#00BEFF"/>
<stop offset="0.5122" stop-color="#00D2FF"/>
<stop offset="0.7604" stop-color="#00DFFF"/>
<stop offset="1" stop-color="#00E3FF"/>
</linearGradient>
<linearGradient id="paint1_linear_2759_25284" x1="50.1132" y1="28.4616" x2="14.2659" y2="28.4616" gradientUnits="userSpaceOnUse">
<stop stop-color="#FFE000"/>
<stop offset="0.4087" stop-color="#FFBD00"/>
<stop offset="0.7754" stop-color="#FFA500"/>
<stop offset="1" stop-color="#FF9C00"/>
</linearGradient>
<linearGradient id="paint2_linear_2759_25284" x1="36.7718" y1="31.8405" x2="3.19536" y2="65.5562" gradientUnits="userSpaceOnUse">
<stop stop-color="#FF3A44"/>
<stop offset="1" stop-color="#C31162"/>
</linearGradient>
<linearGradient id="paint3_linear_2759_25284" x1="10.8018" y1="-0.793769" x2="25.7952" y2="14.2617" gradientUnits="userSpaceOnUse">
<stop stop-color="#32A071"/>
<stop offset="0.0685" stop-color="#2DA771"/>
<stop offset="0.4762" stop-color="#15CF74"/>
<stop offset="0.8009" stop-color="#06E775"/>
<stop offset="1" stop-color="#00F076"/>
</linearGradient>
</defs>
</svg>
