<svg width="32" height="32" viewBox="0 0 32 32" fill="none" xmlns="http://www.w3.org/2000/svg">
<path fill-rule="evenodd" clip-rule="evenodd" d="M9.24301 17.4351C10.0241 16.6541 11.2904 16.6541 12.0714 17.4351C12.8525 18.2162 12.8525 19.4825 12.0714 20.2636C11.2904 21.0446 10.0241 21.0446 9.24301 20.2636C8.46196 19.4825 8.46196 18.2162 9.24301 17.4351ZM12.6894 15.4029L14.8394 13.253L11.8292 10.2427L10.7685 9.88917L9.70785 8.1214L11.1221 6.70719L12.8898 7.76785L13.2434 8.82851L16.2536 11.8387L21.2638 6.82854C21.6544 6.43801 22.2875 6.43801 22.678 6.82854C23.0686 7.21906 23.0686 7.85223 22.678 8.24275L24.7994 10.3641L21.9709 13.1925L19.8496 11.0712L17.6678 13.253L19.6073 15.1925C19.9979 14.8019 20.631 14.8019 21.0216 15.1925L25.2642 19.4351C26.0452 20.2162 26.0452 21.4825 25.2642 22.2635C24.4831 23.0446 23.2168 23.0446 22.4358 22.2635L18.1931 18.0209C17.8026 17.6304 17.8026 16.9972 18.1931 16.6067L16.2536 14.6672L14.1037 16.8171C15.0096 18.351 14.8036 20.3598 13.4857 21.6778C11.9236 23.2399 9.3909 23.2399 7.8288 21.6778C6.2667 20.1157 6.2667 17.583 7.8288 16.0209C9.14673 14.703 11.1555 14.497 12.6894 15.4029Z" fill="#FF9F2F"/>
</svg>
