<svg width="32" height="32" viewBox="0 0 32 32" fill="none" xmlns="http://www.w3.org/2000/svg">
<circle cx="16" cy="17" r="4" fill="#1C85FF"/>
<path fill-rule="evenodd" clip-rule="evenodd" d="M8 9C8 7.89543 8.89543 7 10 7H22C23.1046 7 24 7.89543 24 9V23C24 24.1046 23.1046 25 22 25H10C8.89543 25 8 24.1046 8 23V9ZM21 17C21 19.7614 18.7614 22 16 22C13.2386 22 11 19.7614 11 17C11 14.2386 13.2386 12 16 12C18.7614 12 21 14.2386 21 17ZM18.5 9C18.2239 9 18 9.22386 18 9.5C18 9.77614 18.2239 10 18.5 10H21.5C21.7761 10 22 9.77614 22 9.5C22 9.22386 21.7761 9 21.5 9H18.5Z" fill="#1C85FF"/>
</svg>
