<svg width="32" height="32" viewBox="0 0 32 32" fill="none" xmlns="http://www.w3.org/2000/svg">
<path d="M16 25C22.0751 25 27 23.8807 27 22.5C27 21.1193 22.0751 20 16 20C9.92487 20 5 21.1193 5 22.5C5 23.8807 9.92487 25 16 25Z" fill="#63C74D"/>
<path fill-rule="evenodd" clip-rule="evenodd" d="M6 16.5567C6 12.7295 8.46819 9.44024 12 8V19.1685C10.534 19.297 9.21249 19.4944 8.11101 19.7447C7.2879 19.9318 6.56957 20.1524 6 20.4052V16.5567ZM26 20.4052V16.5567C26 12.7295 23.5318 9.44024 20 8V19.1685C21.466 19.297 22.7875 19.4944 23.889 19.7447C24.7121 19.9318 25.4304 20.1524 26 20.4052Z" fill="#63C74D"/>
<path fill-rule="evenodd" clip-rule="evenodd" d="M15 6C13.8954 6 13 6.89543 13 8V19.0931C13.9561 19.0323 14.9623 19 16 19C17.0377 19 18.0439 19.0323 19 19.0931V8C19 6.89543 18.1046 6 17 6H15Z" fill="#63C74D"/>
</svg>
